<svg xmlns="http://www.w3.org/2000/svg" viewBox="0 0 1200 800" preserveAspectRatio="xMidYMid slice">
  <defs>
    <linearGradient id="quoteBg" x1="0" y1="0" x2="1" y2="1">
      <stop offset="0%" stop-color="#09121d" />
      <stop offset="100%" stop-color="#101c32" />
    </linearGradient>
    <linearGradient id="icon" x1="0" y1="0" x2="1" y2="1">
      <stop offset="0%" stop-color="#7ed1ff" />
      <stop offset="100%" stop-color="#3b74ff" />
    </linearGradient>
  </defs>
  <rect width="1200" height="800" fill="url(#quoteBg)" />
  <circle cx="240" cy="220" r="120" fill="rgba(255,255,255,0.05)" />
  <path d="M310 350c70-18 160-14 240 20 60 24 120 82 150 152" stroke="rgba(255,255,255,0.08)" stroke-width="22" fill="none" stroke-linecap="round" />
  <rect x="700" y="160" width="300" height="220" rx="36" fill="rgba(255,255,255,0.08)" />
  <path d="M760 240h180" stroke="url(#icon)" stroke-width="24" stroke-linecap="round" />
  <path d="M760 310h140" stroke="url(#icon)" stroke-width="20" stroke-linecap="round" />
  <path d="M800 380h100" stroke="rgba(255,255,255,0.12)" stroke-width="16" stroke-linecap="round" />
  <path d="M360 530c10 0 18-8 18-18v-40c0-10-8-18-18-18h-36c-10 0-18 8-18 18v40c0 10 8 18 18 18h36z" fill="rgba(126,209,255,0.22)" />
  <path d="M375 462l28-28 18 18-28 28z" fill="rgba(255,255,255,0.6)" />
</svg>
